<svg width="1214" height="1922" viewBox="0 0 514 822" fill="none" xmlns="http://www.w3.org/2000/svg">
<path d="M1108.91 854.545C1052.08 964.511 970.146 1058.78 872.216 1126.87C774.286 1194.96 664.194 1234.22 554.172 1240.27C444.149 1246.32 338.504 1218.94 248.974 1161.16C159.443 1103.38 89.5332 1017.46 47.0106 912.963C4.48801 808.463 -8.98217 689.467 8.09668 569.196C25.1755 448.925 72.1346 332.088 143.757 231.665C215.379 131.243 308.86 51.1675 413.813 0.33546C518.767 -50.4966 631.084 -70.0948 738.285 -56.2819L597.548 590.254L1108.91 854.545Z" fill="url(#paint0_linear_65_237)" fill-opacity="0.8"/>
<defs>
<linearGradient id="paint0_linear_65_237" x1="86.1818" y1="325.963" x2="1122.21" y2="861.42" gradientUnits="userSpaceOnUse">
<stop stop-color="#0066FF"/>
<stop offset="1" stop-color="#0C4191"/>
</linearGradient>
</defs>
</svg>
